<svg id="Capa_1" data-name="Capa 1" xmlns="http://www.w3.org/2000/svg" viewBox="0 0 189.23 256.33"><defs><style>.cls-1{fill:#41b883;}</style></defs><title>candado</title><path class="cls-1" d="M80.55,78.88V72.22A48,48,0,0,1,128.5,24.27h0a48,48,0,0,1,47.95,47.95V99H197V72.65a68.5,68.5,0,0,0-68.5-68.5h0A68.5,68.5,0,0,0,60,72.65v6.23Z" transform="translate(-33.77 0.33)"/><path class="cls-1" d="M85.34,78.88c0-11.5,1.13-22,8-31.72a43.32,43.32,0,0,1,33.78-18.08c25.7-.7,44.55,20.32,44.55,45.22V99a4.86,4.86,0,0,0,4.79,4.79H197A4.86,4.86,0,0,0,201.79,99c0-10.57.62-21.35-.22-31.9A73.64,73.64,0,0,0,176,16.88C145.79-8.62,99.11-5.57,73.15,24.64,59.71,40.27,55.21,58.71,55.21,78.88A4.86,4.86,0,0,0,60,83.67H80.55c6.16,0,6.17-9.58,0-9.58H60l4.79,4.79c0-15.53,2.47-29.74,11.5-42.78A64.07,64.07,0,0,1,119.51,9.54C155,4.48,189.11,31.2,192,67.1c.85,10.55.22,21.32.22,31.9L197,94.21H176.45L181.24,99c0-8.41,0-16.82,0-25.22,0-13.31-4.13-25.79-12.82-36C148.08,13.92,109.64,13.69,89,37.29c-10.53,12-13.24,26.08-13.24,41.59C75.76,85,85.34,85.06,85.34,78.88Z" transform="translate(-33.77 0.33)"/><path class="cls-1" d="M206.1,99H50.66a16.9,16.9,0,0,0-16.9,16.9V239.1A16.9,16.9,0,0,0,50.66,256H206.1A16.9,16.9,0,0,0,223,239.1V115.9A16.9,16.9,0,0,0,206.1,99Zm-2,83.75a8.25,8.25,0,0,1-8.25,8.25H60.26A8.25,8.25,0,0,1,52,182.75h0a8.25,8.25,0,0,1,8.25-8.25H195.81a8.25,8.25,0,0,1,8.25,8.25Zm0-30a8.25,8.25,0,0,1-8.25,8.25H60.26A8.25,8.25,0,0,1,52,152.75h0a8.25,8.25,0,0,1,8.25-8.25H195.81a8.25,8.25,0,0,1,8.25,8.25Zm0-30a8.25,8.25,0,0,1-8.25,8.25H60.26A8.25,8.25,0,0,1,52,122.75h0a8.25,8.25,0,0,1,8.25-8.25H195.81a8.25,8.25,0,0,1,8.25,8.25Z" transform="translate(-33.77 0.33)"/></svg>